<svg width="209" height="36" viewBox="0 0 209 36" fill="none" xmlns="http://www.w3.org/2000/svg">
<g clip-path="url(#clip0_976_335)">
<path d="M41.2402 0.209961V25.689L49.064 35.79V10.311L41.2402 0.209961Z" fill="white"/>
<path d="M54.5742 0.0375977V35.9624L62.3979 28.6623V16.3185L85.8654 35.9624V0.0375977L77.8934 9.91414L77.9955 20.2956L54.5742 0.0375977Z" fill="white"/>
<path d="M196.634 29.967L209 35.9563L187.785 0L166.571 36L178.951 29.9634L187.785 15.4386L196.634 29.967Z" fill="white"/>
<path d="M13.4605 17.9011L27.0256 21.3915C25.5997 25.0579 22.0404 27.6623 17.8647 27.6623C12.4333 27.6623 8.03159 23.2666 8.03159 17.8453C8.03159 12.424 12.4346 8.02818 17.8647 8.02818C22.0926 8.02818 25.686 10.697 27.0755 14.4349H35.3939C33.7978 6.21622 26.5613 0.00970459 17.8647 0.00970459C7.99755 0.00970459 0 7.99541 0 17.8453C0 27.6951 7.99755 35.6808 17.8647 35.6808C27.7319 35.6808 35.7295 27.6963 35.7295 17.8453C35.7295 17.7931 35.7222 17.7421 35.7222 17.6899L13.463 17.9011H13.4605Z" fill="white"/>
<path d="M146.8 26.933C129.994 18.0613 151.614 -2.56438 159.744 14.4338H168.062C163.184 -8.7442 128.29 -1.55464 133.128 21.786C136.298 24.4693 140.784 26.831 146.8 26.9342V26.933Z" fill="#BFBECC"/>
<path d="M168.39 17.6899L146.131 17.9011L159.696 21.3915C158.687 23.9863 156.606 26.0434 153.997 27.0276L154.003 27.0313C147.233 29.3942 138.205 27.3844 133.647 23.6222C133.647 23.6222 133.647 23.6222 133.647 23.6234C133.109 23.2229 132.593 22.8115 132.115 22.3928C132.115 22.3903 132.115 22.3867 132.115 22.3843C129.289 19.8077 127.532 17.6766 126.191 14.4362C125.897 14.4277 117.931 14.4362 117.647 14.4338C121.073 22.343 127.135 29.2571 136.408 33.5485C148.81 39.6664 168.802 34.0182 168.398 17.6972C168.396 17.6948 168.393 17.6924 168.391 17.6899H168.39Z" fill="#FAED62"/>
<path d="M124.207 26.1611C123.73 25.7011 123.128 25.161 122.733 24.7217C120.478 22.2107 119.008 19.7312 118.067 17.7676L117.673 17.7712L104.033 17.9011L117.598 21.3915C116.02 25.4511 111.826 28.2073 107.076 27.5701C102.687 26.9815 99.1705 23.3891 98.6696 18.997C98.6271 18.6256 98.6052 18.2579 98.604 17.895C98.6004 17.1693 98.6757 16.4605 98.8216 15.7797C98.9675 15.0976 99.1851 14.4422 99.4647 13.8221C100.444 11.6484 102.193 9.89474 104.365 8.90685C105.606 8.34251 106.984 8.02818 108.438 8.02818C108.865 8.02818 109.283 8.06458 109.697 8.11677C109.773 8.12648 109.85 8.13376 109.926 8.1459C110.312 8.20415 110.69 8.28668 111.059 8.38984C111.149 8.41411 111.237 8.44202 111.325 8.46994C111.689 8.58159 112.045 8.70781 112.389 8.85951C112.451 8.88743 112.511 8.9202 112.573 8.94932C112.87 9.08768 113.159 9.24302 113.439 9.4105C113.523 9.46026 113.61 9.50759 113.692 9.55978C115.153 10.4894 116.354 11.7904 117.157 13.3354H125.773C125.669 13.0405 125.559 12.748 125.464 12.4494C124.954 10.8426 124.212 9.34254 123.294 7.96871C122.648 6.99902 121.909 6.0985 121.088 5.27566C121.067 5.25502 121.048 5.23318 121.027 5.21255C120.783 4.96982 120.531 4.73559 120.274 4.50743C120.206 4.44674 120.137 4.38849 120.069 4.32902C119.819 4.11421 119.566 3.90425 119.305 3.70279C119.239 3.65303 119.172 3.6057 119.105 3.55715C118.534 3.13117 117.942 2.73309 117.321 2.3775C117.31 2.37143 117.299 2.36294 117.287 2.35687C117.057 2.2258 116.821 2.10686 116.585 1.9855C116.413 1.8969 116.241 1.80831 116.066 1.72457C115.849 1.62141 115.629 1.52432 115.407 1.43087C115.196 1.34106 114.982 1.2561 114.767 1.17479C114.563 1.09712 114.36 1.01944 114.152 0.949053C113.859 0.849535 113.56 0.762154 113.259 0.678413C113.117 0.638363 112.979 0.592245 112.836 0.555836C112.402 0.445396 111.961 0.355587 111.516 0.277914C111.357 0.250001 111.197 0.230583 111.036 0.207524C110.719 0.161405 110.399 0.121356 110.076 0.0922283C109.902 0.0764511 109.728 0.0643148 109.554 0.0533921C109.221 0.0327603 108.886 0.0230513 108.548 0.020624C108.392 0.020624 108.238 0.0157695 108.081 0.0181967C107.589 0.0279058 107.094 0.0509648 106.594 0.101937C98.3281 0.930849 91.6045 7.56457 90.6903 15.8088C89.4966 26.5701 97.9038 35.6796 108.441 35.6796C108.864 35.6796 109.284 35.6638 109.7 35.6347C109.836 35.625 109.971 35.6056 110.106 35.5934C110.385 35.5679 110.662 35.5425 110.936 35.5048C111.094 35.483 111.25 35.4502 111.407 35.4247C111.655 35.3835 111.903 35.3434 112.146 35.2912C112.31 35.256 112.469 35.2136 112.631 35.1747C112.864 35.1189 113.097 35.0631 113.326 34.9987C113.489 34.9526 113.647 34.8992 113.808 34.8483C114.031 34.7779 114.256 34.7075 114.476 34.6274C114.634 34.5703 114.788 34.5072 114.943 34.4465C115.161 34.3616 115.377 34.2754 115.591 34.182C115.743 34.1152 115.891 34.0436 116.041 33.9732C116.252 33.8737 116.463 33.7718 116.669 33.6637C116.814 33.5885 116.955 33.5096 117.096 33.4307C117.301 33.3154 117.506 33.1989 117.706 33.0764C117.841 32.9938 117.975 32.9077 118.107 32.8215C118.308 32.6916 118.506 32.5593 118.701 32.421C118.826 32.3324 118.95 32.2414 119.074 32.1491C119.27 32.0035 119.462 31.8542 119.65 31.7013C119.765 31.6079 119.88 31.5132 119.994 31.4161C120.184 31.2547 120.368 31.0896 120.551 30.9197C120.655 30.8226 120.76 30.7243 120.863 30.6248C121.047 30.4464 121.225 30.2632 121.402 30.0763C121.494 29.9779 121.588 29.8796 121.678 29.7801C121.855 29.5835 122.027 29.3808 122.196 29.1769C122.277 29.0786 122.358 28.9816 122.437 28.8808C122.608 28.6648 122.772 28.4427 122.932 28.2194C123 28.1235 123.071 28.0301 123.138 27.933C123.303 27.6939 123.459 27.4487 123.612 27.1999C123.666 27.1126 123.722 27.0264 123.776 26.9378C123.809 26.8832 123.845 26.831 123.877 26.7752C123.874 26.7727 123.872 26.7703 123.869 26.7679C123.986 26.5676 124.097 26.3637 124.207 26.1599V26.1611Z" fill="#9999A3"/>
</g>
<defs>
<clipPath id="clip0_976_335">
<rect width="209" height="36" fill="white"/>
</clipPath>
</defs>
</svg>
