<svg width="106" height="49" viewBox="0 0 106 49" fill="none" xmlns="http://www.w3.org/2000/svg">
<g clip-path="url(#clip0_976_354)">
<path d="M76.5789 36.7006C53.6914 24.6041 83.1348 -3.52149 94.2078 19.6574H105.537C98.8932 -11.9466 51.3698 -2.14375 57.9592 29.6814C62.2765 33.3399 68.3856 36.5604 76.58 36.7006H76.5789Z" fill="#686868"/>
<path d="M105.982 24.0971L75.6665 24.3862L94.1406 29.1452C92.7666 32.684 89.9333 35.4891 86.3801 36.8301L86.3887 36.8355C77.169 40.0571 64.8731 37.3178 58.6658 32.1866C58.6658 32.1866 58.6658 32.1877 58.6658 32.1887C57.933 31.6417 57.2303 31.0818 56.5784 30.51C56.5784 30.5057 56.5784 30.5024 56.5784 30.4981C52.7305 26.9842 50.3376 24.0787 48.5114 19.6596C48.1109 19.6477 37.2625 19.6596 36.875 19.6563C41.5399 30.442 49.7969 39.8683 62.4252 45.7202C79.3158 54.0622 106.542 46.3611 105.993 24.1068C105.988 24.1035 105.986 24.1003 105.983 24.0971H105.982Z" fill="#FAED62"/>
<path d="M45.8081 35.6475C45.1583 35.0195 44.338 34.2848 43.8005 33.685C40.7298 30.2606 38.7276 26.8804 37.4464 24.2037L36.91 24.2091L18.3335 24.386L36.8075 29.145C34.6585 34.6797 28.9466 38.4386 22.4771 37.57C16.4997 36.7674 11.7106 31.8692 11.0285 25.8803C10.9713 25.3743 10.941 24.8726 10.9389 24.3784C10.9335 23.388 11.036 22.4235 11.2357 21.4935C11.4343 20.5635 11.73 19.6702 12.1111 18.8232C13.4451 15.8584 15.8262 13.4676 18.7835 12.1201C20.4738 11.3498 22.3519 10.9214 24.3303 10.9214C24.9121 10.9214 25.4819 10.97 26.0432 11.0423C26.1468 11.0563 26.2526 11.066 26.3562 11.0822C26.8818 11.162 27.3956 11.2753 27.8986 11.4145C28.0206 11.4479 28.1404 11.4868 28.2602 11.5235C28.7545 11.6756 29.2413 11.8482 29.7086 12.0553C29.7939 12.0931 29.8738 12.1384 29.958 12.1773C30.3638 12.3671 30.7567 12.5775 31.1388 12.8052C31.2532 12.8731 31.3708 12.9379 31.4831 13.0091C33.4723 14.2768 35.1097 16.0516 36.202 18.1576H47.9355C47.793 17.7562 47.6441 17.357 47.5145 16.9503C46.8195 14.7601 45.8092 12.7146 44.5593 10.8416C43.6775 9.51995 42.6715 8.2911 41.5544 7.16905C41.5264 7.141 41.4994 7.11187 41.4713 7.08274C41.1389 6.75152 40.7956 6.43325 40.4449 6.12145C40.3531 6.03945 40.2592 5.95854 40.1664 5.8787C39.8264 5.58632 39.481 5.29933 39.1248 5.02529C39.0363 4.95732 38.9435 4.89367 38.8539 4.8257C38.0757 4.24526 37.2694 3.70257 36.4232 3.21707C36.4081 3.20844 36.393 3.19765 36.3779 3.18902C36.066 3.00993 35.7443 2.84809 35.4227 2.68302C35.1885 2.56219 34.9542 2.44027 34.7146 2.32699C34.4189 2.18673 34.1188 2.05511 33.8166 1.92672C33.5284 1.80373 33.237 1.68936 32.9434 1.57716C32.666 1.47143 32.3886 1.3657 32.1059 1.26967C31.7065 1.13481 31.2996 1.01613 30.8905 0.900693C30.6973 0.846749 30.5084 0.783094 30.3142 0.733465C29.7238 0.583499 29.1226 0.460506 28.516 0.354774C28.3001 0.317013 28.0799 0.29112 27.8619 0.258753C27.4291 0.195098 26.9941 0.141154 26.5548 0.101235C26.3184 0.0796571 26.0821 0.0623949 25.8446 0.0472904C25.3913 0.0192392 24.9336 0.00629252 24.4738 0.00305585C24.2623 0.00197695 24.0518 -0.00449639 23.8392 -0.000180828C23.1689 0.0127659 22.4954 0.0451326 21.8143 0.113103C10.5546 1.24486 1.39967 10.2903 0.154108 21.5313C-1.47138 36.2052 9.9772 48.6265 24.3292 48.6265C24.9067 48.6265 25.4776 48.6049 26.0443 48.565C26.231 48.5521 26.4123 48.5262 26.598 48.5089C26.9768 48.4733 27.3557 48.4399 27.7281 48.387C27.9439 48.3568 28.1555 48.3136 28.3692 48.277C28.7059 48.2209 29.0438 48.1658 29.3762 48.0957C29.5986 48.0482 29.8166 47.99 30.0378 47.936C30.3552 47.8594 30.6725 47.7839 30.9844 47.6954C31.2057 47.6329 31.4216 47.5595 31.6407 47.4905C31.9461 47.3934 32.2516 47.2984 32.5516 47.1894C32.7664 47.1118 32.9758 47.0265 33.1874 46.9424C33.4831 46.8259 33.7788 46.7093 34.0692 46.5809C34.2753 46.4903 34.4783 46.3921 34.6812 46.2961C34.9694 46.1602 35.2554 46.0221 35.5371 45.8754C35.7335 45.7729 35.9257 45.665 36.1189 45.5571C36.3995 45.4006 36.6769 45.241 36.951 45.0748C37.1356 44.9615 37.3169 44.845 37.4983 44.7274C37.7713 44.5505 38.0412 44.3692 38.3067 44.1815C38.4783 44.0607 38.6467 43.9366 38.8151 43.8114C39.0806 43.6129 39.3429 43.4101 39.5997 43.2008C39.7573 43.0724 39.9127 42.944 40.0671 42.8113C40.3251 42.5912 40.5765 42.3657 40.8248 42.1348C40.9683 42.0021 41.1097 41.8683 41.25 41.7324C41.5005 41.4886 41.7433 41.2394 41.9829 40.9847C42.1092 40.851 42.2355 40.7172 42.3596 40.5802C42.6014 40.3115 42.8356 40.0364 43.0655 39.757C43.1756 39.6232 43.2878 39.4905 43.3958 39.3535C43.6278 39.0589 43.8513 38.7568 44.0704 38.4504C44.1632 38.3199 44.2593 38.1926 44.3499 38.0599C44.5744 37.733 44.7871 37.3985 44.9964 37.0608C45.0709 36.9411 45.1475 36.8245 45.2199 36.7026C45.2641 36.6282 45.3138 36.557 45.358 36.4814C45.3548 36.4782 45.3515 36.475 45.3483 36.4717C45.507 36.1988 45.6581 35.9204 45.8081 35.6431V35.6475Z" fill="#8C8C8C"/>
</g>
<defs>
<clipPath id="clip0_976_354">
<rect width="106" height="49" fill="white"/>
</clipPath>
</defs>
</svg>
