<svg width="106" height="49" viewBox="0 0 106 49" fill="none" xmlns="http://www.w3.org/2000/svg">
<g clip-path="url(#clip0_976_344)">
<path d="M76.5795 36.7006C53.6922 24.6042 83.1356 -3.52098 94.2086 19.6569H105.537C98.8938 -11.9475 51.3705 -2.14409 57.959 29.6811C62.2759 33.3402 68.3857 36.5601 76.5795 36.7006Z" fill="#D6D6D6"/>
<path d="M105.982 24.0963L75.6662 24.385L94.14 29.1439C92.7656 32.6826 89.9319 35.4881 86.3794 36.8295L86.3879 36.8349C77.168 40.0564 64.8719 37.3173 58.6649 32.1863C58.6649 32.1863 58.6649 32.1879 58.6649 32.1886C57.9321 31.6422 57.2295 31.0811 56.577 30.51C56.577 30.5061 56.577 30.5023 56.577 30.4984C52.7296 26.9844 50.336 24.0786 48.5099 19.66C48.1092 19.6484 37.2609 19.66 36.874 19.6562C41.5384 30.4421 49.7955 39.868 62.4243 45.7198C79.3153 54.0622 106.542 46.3604 105.992 24.1064C105.988 24.1025 105.986 24.1002 105.982 24.0963Z" fill="#FAED62"/>
<path d="M45.8091 35.6476C45.159 35.0201 44.339 34.2846 43.8016 33.6849C40.7301 30.2612 38.7287 26.8807 37.447 24.2034L36.9104 24.2088L18.3331 24.3855L36.8069 29.1444C34.6573 34.6798 28.9467 38.4384 22.4763 37.5694C16.4993 36.7667 11.7099 31.8689 11.0273 25.8797C10.9694 25.3734 10.94 24.8725 10.9377 24.3778C10.9323 23.3876 11.035 22.4221 11.2342 21.4928C11.4334 20.5636 11.7284 19.6698 12.1098 18.8224C13.4433 15.8579 15.8253 13.4669 18.7825 12.1193C20.4727 11.3498 22.3512 10.9207 24.3294 10.9207C24.9108 10.9207 25.4807 10.9701 26.042 11.0419C26.1462 11.055 26.2512 11.0658 26.3547 11.0812C26.8797 11.1615 27.394 11.2742 27.8966 11.4139C28.0186 11.4478 28.1383 11.4857 28.2587 11.5227C28.7537 11.6755 29.2393 11.8476 29.7072 12.0545C29.7922 12.0923 29.8725 12.1371 29.9566 12.1764C30.362 12.3655 30.755 12.577 31.1372 12.8047C31.2515 12.8726 31.3689 12.9374 31.4816 13.0092C33.4713 14.2773 35.1075 16.0516 36.2 18.1571H47.934C47.7919 17.7558 47.6421 17.3567 47.5131 16.95C46.8182 14.7596 45.8075 12.7144 44.5582 10.8412C43.6765 9.51911 42.6704 8.29041 41.5539 7.16821C41.5261 7.13965 41.4991 7.11032 41.4705 7.08254C41.1385 6.75144 40.7949 6.43268 40.4444 6.12165C40.3525 6.03984 40.2591 5.9588 40.1656 5.87853C39.8251 5.58602 39.4808 5.29891 39.124 5.02492C39.0353 4.95623 38.9434 4.89294 38.853 4.8258C38.0755 4.24463 37.2679 3.70283 36.4224 3.2166C36.4069 3.20811 36.3923 3.1973 36.3768 3.18881C36.0649 3.01053 35.7429 2.84768 35.4217 2.68328C35.187 2.56211 34.953 2.44094 34.7137 2.32748C34.418 2.18702 34.1184 2.05504 33.8157 1.92692C33.5277 1.8042 33.2358 1.68921 32.9424 1.57729C32.6645 1.47156 32.3881 1.36505 32.1055 1.27012C31.7055 1.13505 31.2994 1.0162 30.8901 0.901198C30.6971 0.847172 30.5087 0.783113 30.3134 0.733718C29.7227 0.583989 29.122 0.460501 28.5151 0.354764C28.2989 0.316946 28.0788 0.290705 27.8611 0.259061C27.4287 0.195774 26.994 0.141748 26.5539 0.100842C26.3176 0.079232 26.0814 0.0622525 25.8435 0.0475883C25.3895 0.0198035 24.9324 0.0066829 24.4723 0.00359571C24.2607 0.00205211 24.0507 -0.00335049 23.8376 0.000508509C23.1674 0.0136291 22.4933 0.0460447 21.8123 0.113963C10.5563 1.24465 1.39971 10.2901 0.155049 21.5314C-1.47027 36.2056 9.97876 48.627 24.3302 48.627C24.907 48.627 25.4791 48.6053 26.0458 48.566C26.2319 48.5529 26.4141 48.5266 26.5995 48.5096C26.9778 48.4741 27.3569 48.441 27.7298 48.3885C27.946 48.3584 28.1568 48.3152 28.3707 48.2789C28.7081 48.2225 29.0455 48.1677 29.3783 48.0975C29.6007 48.0504 29.8192 47.991 30.0393 47.9377C30.3566 47.8613 30.6739 47.7865 30.9859 47.6969C31.2067 47.6337 31.4237 47.5603 31.6422 47.4916C31.9479 47.3952 32.2529 47.2995 32.5533 47.1906C32.7679 47.1135 32.978 47.027 33.1895 46.9444C33.486 46.8279 33.781 46.7114 34.0721 46.5832C34.279 46.4922 34.4805 46.3949 34.6843 46.2984C34.9723 46.1626 35.2588 46.0245 35.5399 45.877C35.736 45.7744 35.9282 45.6663 36.1213 45.5591C36.4015 45.4024 36.6795 45.2434 36.9528 45.0767C37.1374 44.964 37.3188 44.8475 37.5003 44.7294C37.7736 44.5526 38.0431 44.3713 38.3087 44.1837C38.4801 44.0625 38.6484 43.939 38.8167 43.8132C39.0824 43.6149 39.3441 43.4119 39.6012 43.2028C39.7587 43.0746 39.9147 42.9457 40.0691 42.8138C40.327 42.5938 40.5787 42.3677 40.8273 42.1377C40.9702 42.0049 41.113 41.8714 41.2528 41.7356C41.503 41.4917 41.7462 41.2424 41.9855 40.9877C42.1122 40.8534 42.2388 40.7199 42.3623 40.5833C42.604 40.3147 42.838 40.0391 43.068 39.7598C43.1785 39.6255 43.2904 39.4927 43.3977 39.3569C43.6301 39.062 43.8525 38.7595 44.0718 38.4546C44.1652 38.3242 44.261 38.1969 44.3513 38.0649C44.576 37.7384 44.7891 37.4042 44.9976 37.0662C45.0717 36.9465 45.1489 36.8292 45.2207 36.7081C45.2655 36.6332 45.3149 36.5622 45.3589 36.4873C45.3558 36.4842 45.3528 36.4804 45.3489 36.4773C45.5072 36.2041 45.6585 35.9262 45.8091 35.6484V35.6476Z" fill="#ADADAD"/>
</g>
<defs>
<clipPath id="clip0_976_344">
<rect width="106" height="49" fill="white"/>
</clipPath>
</defs>
</svg>
